<?xml version="1.0" encoding="utf-8"?>
<!-- Generator: Adobe Illustrator 18.0.0, SVG Export Plug-In . SVG Version: 6.00 Build 0)  -->
<!DOCTYPE svg PUBLIC "-//W3C//DTD SVG 1.1//EN" "http://www.w3.org/Graphics/SVG/1.1/DTD/svg11.dtd">
<svg version="1.1" id="Layer_1" xmlns="http://www.w3.org/2000/svg" xmlns:xlink="http://www.w3.org/1999/xlink" x="0px" y="0px"
	 viewBox="0 0 1400 600" enable-background="new 0 0 1400 600" xml:space="preserve" style="background-color: rgba(123, 224, 173, 0.5);">
<g>
	<path fill="#7EA276" d="M1400,321.8c-13.9-0.2-26.7,0.3-35.5,2.1c-30,6.4-60,9.5-105.1,3.2c-45-6.4-56.3-19.1-105.1-12.7
		c-48.8,6.4-127.6,54-198.9,41.3c-71.3-12.7-120.1-38.1-165.1-38.1s-120.1,9.5-187.6,9.5s-97.6-12.7-135.1-12.7
		c-37.5,0-150.1,31.8-210.1,22.2c-60-9.5-120.1-15.9-165.1-6.4c-24.1,5.1-62.3,7.5-92.5,8.6V980h1400V321.8z"/>
	<path fill="#608281" d="M1400,371.7c-43.9-4.5-89.7-7-121.8-3.3c-82.6,9.5-202.6,35-285.2,15.9c-82.6-19.1-172.6-47.7-273.9-47.7
		S539,377.9,449,377.9s-108.8-3.2-221.4-19.1c-70.5-10-166,2.5-227.6,13.3V980h1400V371.7z"/>
	<path fill="#4A7578" d="M1400,437.7c-86.1-19.6-204-49.9-256.9-56.6c-75-9.5-150.1,50.8-255.2,82.6S745.4,476.4,662.8,451
		c-82.6-25.4-153.8-19.1-247.7-3.2S272.6,463.7,175,435.1c-50.4-14.8-119.7-12.6-175-7V980h1400V437.7z"/>
	<path fill="#3B5F74" d="M1400,484.2c-115.3,5.5-283.6,16.9-403.2,39.8c-198.9,38.1-243.9,12.7-375.2-25.4
		C520.8,469.4,161.8,516.8,0,540.5V980h1400V484.2z"/>
	<path fill="#334D60" d="M1400,703.8c-140.5,0.2-281,1.4-420.3-13.1C789.6,670.9,605.5,622.3,418,589.1c-137.1-24.2-279.2-40-418-30
		V980h1400V703.8z"/>
	<path fill="#314452" d="M1400,628.8c-46.7-1.1-110.7,0.3-159.3,12.8c-86.3,22.2-127.6,12.7-210.1,22.2
		c-82.6,9.5-307.7,69.9-405.3,82.6c-66.5,8.7-412.1,48.3-625.3,75.7V980h1400V628.8z"/>
	<path fill="#1E3334" d="M1400,742.6c-3.6,1.2-7.3,2.4-10.9,3.6c-8.9,2.9-19.4,7.5-20.8,16.8c-0.8,5.1,1.5,10.6-0.7,15.3
		c-4.5,9.7-20.9,4.4-28.7,11.7c-5.3,4.9-4.5,13.4-6.8,20.2c-1.1,3.2-3.3,6.2-6.2,8.6c-8.5,7.2-22.7,9.8-29.8,0.7
		c-2.5-3.2-3.9-7.1-6.2-10.5c-0.2-0.3-0.5-0.6-0.7-1c-8.2-10.6-25.4-6.4-28,6.8c-1.2,6-4.3,11.6-8.9,15.5c-8.8,7.6-19.5,6-24.2,17.9
		c-3.4,8.7-1.1,18.8-5.4,27.5c-5.6,11.4-35.6,4-46.6,2.2c-21.1-3.5-24.8-18.5-40.3-24.5c-8.3-3.2-17.5-4.2-26.3-2.8
		c-5,4-8.1,10.2-8.3,16.5c-12,8.5-31.8,0.3-34.2-14.3c-1.1-6.4,0.6-13.5-5.4-18.3c-3.6-2.8-8.3-3.5-12.7-2.3
		c-8.5,2.4-13.5,10.2-16.5,18.1c-4.4,11.7-5.4,24.7-2.7,37c-4.1,4.6-11.6,3.6-17.1,0.9s-10.4-7-16.5-8.1c-9.1-1.6-18.2,4.7-22.1,13
		c-9.3,19.4,3.3,22.4-13.9,32c-11.2,6.3-33.6,2.9-44.5-2.3c-17.3-8.3-32.9-28-51-21.7c-7.5,2.6-12.8,9.2-19.8,12.8
		c-9.5,4.8-23.9,2.8-30.7-6.2c-1.7-2.2-2.7-4.9-4.3-7.1c-1.5-2-3.5-3.5-5.5-4.9c-2.3-1.7-4.5-3.3-6.8-5c-1.1-2.4-2.1-4.7-3.2-7.1
		c-0.9-2-2-4.2-3.9-5.3c-1.4-0.8-3-1-4.5-1.1c-5.5-0.5-11.7-0.8-15.8,2.9c-1.6,1.5-2.8,3.6-4.6,4.7c-3.8,2.4-9.1,0.1-11.8-3.5
		c-5.3-7-7-19.8-8.6-28.3c-1.8-9.2-0.9-22.1-11.6-26.1c-5.5-2.1-12.3-0.4-16.1,4.2c-3,3.6-5.1,9.3-10.4,8.6c-2.5-0.3-4.6-2-5.7-4.2
		l-8.3-16.4c-15.3-2.7-23.9,4.6-35.3-7.4c-7.8-8.3-11.1-12.6-23.7-11.3c-12,1.3-14.7,6-23.5,12.4c-5.9,4.3-15.6-0.4-21,4.5
		c-4.8,4.3-3.1,13.6-8.8,16.7c-10.3,5.6-24.1-14.6-31.9-18.5c-9.6-4.8-11.2-12.6-15.8-20.7c-5.3-9.4-14-15.1-22.4-22
		c-2-1.6-4-3.3-5-5.6c-1.3-3-0.6-6.6-2.1-9.6c-4.2-8.7-18.5-2.4-26.6-7.6c-6.9-4.4-6.6-15.3-12.8-20.6c-5.9-5-16.5-1.9-18.8,5.4
		c-0.5,1.6-0.6,3.3-1.3,4.8c-2.5,5.6-10.7,6-14.5,10.8c-5.9,7.5,2.2,20.5-4.5,27.3c-3.3,3.4-8.6,3.3-13.2,4.4
		c-12.9,3-21.7,17.7-18.1,30.5c-11.2,7.8-23.8-0.6-35.6,2.1c-6.6,1.5-12.7,7.6-11.7,14.3c-4,1.9-8.8-1.5-10.7-5.6s-2.1-8.7-3.9-12.8
		c-2.9-6.6-9.7-11.1-11.3-18.1c-1.6-6.7,2-14.2-1.2-20.3c-2.4-4.6-7.9-6.8-10.4-11.4c-2.8-5-1-11.3-1.4-17
		c-0.8-11.7-12.5-21.4-24.1-20.1c4-5.1,2.6-13.9-3.3-16.4c-5.9-2.5-13.7,4.2-11.2,10.2c-4.9-3.2-11.6-3.5-16.4-0.3
		c-4.8,3.2-7,10.1-4.4,15.3c-11.2,1.7-18.8-5.5-29.7-4c-5.5,0.8-15.5,7.3-20.8,4.6c-4-2-2.1-6-4.7-8.5c-2.8-2.7-4.9-3.7-8.3-5.9
		c-3.9-2.5-4.6-7.9-4.2-12.5c0.4-4.6,1.6-9.4-0.2-13.7c-1.3-3.1-3.9-5.7-4.6-9c-1.3-6.6,5.9-13.4,2.8-19.4c-7.4-3.8-19-1.2-22.4-8.8
		c-0.9-2-0.9-4.3-1.6-6.4c-1.9-6-9.4-9.2-15.4-7.1s-9.9,8.3-10.1,14.6c-0.2,4.3,1,9.1-1.5,12.6c-4.5,6.4-16.6,3-20.6,9.8
		c-2.3,4-0.2,9-1,13.5c-0.7,4.3-4.4,7.9-8.7,8.6c-10,1.7-14.7-8.8-16.4-16.5c-1.8-8.7-1.8-17.7-4-26.3c-2.4-9.3-13.6-24.2-24.3-24
		c-9.8,0.2-10.3,10.4-17.1,14.1c-10.3,5.5-9.5-7.2-9.5-16.5c0-13.7-1-27.1-14.2-35.2c-3.7-2.3-7.7-3.6-11.8-4.3V980h1400V742.6z"/>
	<g>
		<g>
			<g>
				<path fill="#162828" d="M702.2,951.6c-24.3-15.6-58.8-19.9-86.2-8.3c-4.2,1.8-8.3,4-12.9,4.7c-17.7,2.7-30.1-17.9-47.4-22.6
					c-7.2-2-14.9-1-22.3-2.1c-11.2-1.7-21.5-8.5-27.4-18.2c-6.6-10.8-7.7-24-12.6-35.6c-4.9-11.6-16.8-22.6-28.9-18.9
					c-15.7,4.8-17,28.5-31.4,36.3c-17.9,9.7-41.3-11.8-59.4-2.4c-12.6,6.5-14.7,24.1-24.9,33.9c-9.7,9.3-26.9,9.4-36.7,0
					c-10.4-9.9-11.8-27.2-23.2-36c-19.9-15.4-54.9,5.6-71.8-13c-10.4-11.5-4.7-32.4-16.1-42.5c-11.5-10.1-29.6,2.5-40.5-6.8
					c-6.2-5.3-4.8-15.1-7.2-22.9c-5.4-17.2-34.6-18.6-41.6-2c-3.6,8.7-2.9,20.9-11.6,24.6c-9,3.8-17.4-6.1-22.2-14.5
					c-11-19.5-22-39-32.9-58.5c-6.9,0-13.8,0-20.7,0.1C27.6,733.1,14.2,720.9,0,719v261h752.6C735.4,971.2,718.3,962,702.2,951.6z"
					/>
			</g>
			<g>
				<path fill="#162828" d="M1400,980V878.3c-17.5,4.4-36.9,9.8-40.2,10.8c-15,4.6-35.7,10.9-36.9,29.6c-14.4,2.8-29.9-0.9-41.5-9.8
					c-7.5-5.8-17.6-14-24.9-7.8c-1.8,1.5-2.9,3.7-3.9,5.8c-5.4,11.7-9.1,24.2-10.8,36.9c-0.2,1.8-0.5,3.7-2,4.7
					c-1.2,0.8-2.7,0.8-4.1,0.6c-14.1-1.7-29.3-11.6-41.3-3.8c-10.2,6.6-10,21.3-15,32.4c-0.3,0.8-0.7,1.5-1.1,2.2H1400z"/>
			</g>
		</g>
	</g>
</g>
</svg>
